<svg id="prefix__object" viewBox="0 0 32 32" xmlns="http://www.w3.org/2000/svg"><style>.prefix__cls-6{fill:#9e9e9e}</style><path d="M9 8a8 8 0 00-8 8 7.91 7.91 0 00.82 3.5A7.93 7.93 0 014 16.78a5.4 5.4 0 01-.5-2.28 5.5 5.5 0 0111 0 5.4 5.4 0 01-.5 2.28 7.93 7.93 0 012.18 2.72A7.91 7.91 0 0017 16a8 8 0 00-8-8z" fill="#ff5722"/><path d="M12.86 18.42a5.51 5.51 0 01-7.72 0 6 6 0 00-1.94 3.07 8 8 0 0011.6 0 6 6 0 00-1.94-3.07z" fill="#4caf50"/><circle cx="9" cy="14.5" r="3.5" fill="#ffc107"/><path d="M25 19a6 6 0 00-4.93 9.42 5.75 5.75 0 011.05-1.15A4.37 4.37 0 0120.5 25a4.5 4.5 0 019 0 4.37 4.37 0 01-.62 2.27 5.75 5.75 0 011.05 1.15A6 6 0 0025 19z" fill="#2196f3"/><path d="M27.51 28.73a4.48 4.48 0 01-5 0 4.09 4.09 0 00-1 1.15 5.94 5.94 0 006.94 0 4.09 4.09 0 00-.94-1.15z" fill="#f44336"/><circle class="prefix__cls-6" cx="25" cy="24.83" r="3"/><path d="M21.12 9.27A4.37 4.37 0 0120.5 7a4.5 4.5 0 019 0 4.37 4.37 0 01-.62 2.27 5.75 5.75 0 011.05 1.15 6 6 0 10-9.86 0 5.75 5.75 0 011.05-1.15z" fill="#795548"/><path d="M21.53 11.88a5.94 5.94 0 006.94 0 4.09 4.09 0 00-1-1.15 4.48 4.48 0 01-5 0 4.09 4.09 0 00-.94 1.15z" fill="#ffeb3b"/><circle cx="25" cy="6.83" r="3" fill="#03a9f4"/><path d="M19.11 10.77A6.38 6.38 0 0118.28 9l-2.47 1.18A9.17 9.17 0 0117 11.8z" fill="#8bc34a"/><path class="prefix__cls-6" d="M17.54 18.83a8.94 8.94 0 01-.85 1.83l2 1.3a6.22 6.22 0 011.12-1.66z"/></svg>