<svg xmlns="http://www.w3.org/2000/svg" viewBox="0 0 151.16 240.97"><defs><style>.prefix__cls-1{fill:#effafe}.prefix__cls-5{fill:#e4ebed}.prefix__cls-7{fill:#263238}</style></defs><g id="prefix__Слой_2" data-name="Слой 2"><g id="prefix__Layer_1" data-name="Layer 1"><path class="prefix__cls-1" d="M37.12 51.15a4.42 4.42 0 10-.7 0z"/><path d="M21.46 63.97h2.12v-1.22c0-4.2 2.1-8.12 6.78-10.56a8.54 8.54 0 01-2-5.42 8.415 8.415 0 1116.83 0 8.57 8.57 0 01-2 5.42c4.69 2.45 6.78 6.39 6.78 10.56v1.22h2.1V33.35H21.46z" fill="#40bdff"/><path d="M129.7 213.47v-41.49l-.59.1a14.93 14.93 0 00-12.37 14.74v11.65a2 2 0 01-2 2h-31v13a23 23 0 0046 0z" fill="#fd0"/><path d="M129.11 172.08a15 15 0 00-4.41 1.52v39.87a23 23 0 01-20.5 22.86 23 23 0 0025.5-22.86v-41.49z" fill="#efc803"/><path class="prefix__cls-1" d="M38.38 55.15h-3.22a7.61 7.61 0 00-7.6 7.6v1.22h18.43v-1.22a7.61 7.61 0 00-7.61-7.6z"/><path class="prefix__cls-5" d="M36.77 42.36a4.36 4.36 0 00-2 .5 4.37 4.37 0 010 7.81 4.461 4.461 0 001.66.48h.7a4.4 4.4 0 00-.37-8.79z"/><path d="M48.09 33.35v23.07a11.21 11.21 0 011.9 6.34v1.21h2.1V33.35z" fill="#2197f7"/><path class="prefix__cls-5" d="M38.38 55.15h-3.61a7.61 7.61 0 017.21 7.58v1.24h4v-1.22a7.61 7.61 0 00-7.6-7.6z"/><path class="prefix__cls-1" d="M134.05 7.3v9.78h9.78l-9.78-9.78z"/><path class="prefix__cls-1" d="M15.8 196.47h96.94v-9.65a19 19 0 0119-19 2 2 0 012 2v26.65h6.66a6.31 6.31 0 006.3-6.31V21.08h-14.65a2 2 0 01-2-2V4.47H15.8a6.31 6.31 0 00-6.3 6.31v179.38a6.31 6.31 0 006.3 6.31zm40.29-130.5a2 2 0 01-2 2H19.46a2 2 0 01-2-2V31.35a2 2 0 012-2h34.63a2 2 0 012 2zm75.61-15.31h-64a2 2 0 010-4h64a2 2 0 010 4zm-64 13.31h64a2 2 0 010 4h-64a2 2 0 010-4zm64-30.63H71.4a2 2 0 110-4h60.3a2 2 0 010 4zM19.46 81.29H131.7a2 2 0 010 4H19.46a2 2 0 110-4zm0 17.31H131.7a2 2 0 010 4H19.46a2 2 0 010-4zm0 17.31H131.7a2 2 0 010 4H19.46a2 2 0 010-4zm0 17.31H131.7a2 2 0 010 4H19.46a2 2 0 010-4zm0 17.31H131.7a2 2 0 010 4H19.46a2 2 0 010-4zm0 17.31h69a2 2 0 110 4h-69a2 2 0 010-4z"/><path class="prefix__cls-5" d="M141.66 21.08v169.08a6.31 6.31 0 01-6.3 6.31h5a6.31 6.31 0 006.3-6.31V21.08z"/><path class="prefix__cls-7" d="M10.8 200.97h68.4v12.5a27.5 27.5 0 1055 0v-12.5h6.16a10.82 10.82 0 0010.8-10.81V19.08a2.65 2.65 0 00-.73-1.77L133.82.7h-.05a2.56 2.56 0 00-1.72-.7H10.8A10.82 10.82 0 000 10.81v179.35a10.82 10.82 0 0010.8 10.81zm118.4-2.5v15a22.5 22.5 0 11-45 0v-12.5h30.54a2.5 2.5 0 002.5-2.5v-11.65a14.48 14.48 0 0112-14.24zm5.38-190l8 8.11h-8zM5 10.78a5.81 5.81 0 015.8-5.81h118.78v14.11a2.5 2.5 0 002.5 2.5h14.11v168.58a5.81 5.81 0 01-5.8 5.81h-6.16v-26.11a2.5 2.5 0 00-2.5-2.5 19.48 19.48 0 00-19.46 19.46v9.15H10.8a5.81 5.81 0 01-5.8-5.81z"/><path class="prefix__cls-7" d="M71.4 33.85h60.3a2.5 2.5 0 000-5H71.4a2.5 2.5 0 000 5zM67.74 51.16h64a2.5 2.5 0 000-5h-64a2.5 2.5 0 000 5zM67.74 68.47h64a2.5 2.5 0 000-5h-64a2.5 2.5 0 100 5zM19.46 85.79H131.7a2.5 2.5 0 000-5H19.46a2.5 2.5 0 100 5zM19.46 103.1H131.7a2.5 2.5 0 000-5H19.46a2.5 2.5 0 000 5zM19.46 120.42H131.7a2.5 2.5 0 000-5H19.46a2.5 2.5 0 100 5zM19.46 137.73H131.7a2.5 2.5 0 000-5H19.46a2.5 2.5 0 000 5zM19.46 155.04H131.7a2.5 2.5 0 000-5H19.46a2.5 2.5 0 000 5zM19.46 172.36h69a2.5 2.5 0 000-5h-69a2.5 2.5 0 000 5zM19.46 68.47h34.63a2.5 2.5 0 002.5-2.5V31.35a2.5 2.5 0 00-2.5-2.5H19.46a2.5 2.5 0 00-2.5 2.5v34.62a2.5 2.5 0 002.5 2.5zm26-5h-17.4v-.72a7.11 7.11 0 017.1-7.1h3.22a7.11 7.11 0 017.1 7.1zm-12.6-16.7a3.91 3.91 0 114.24 3.88h-.66a3.91 3.91 0 01-3.58-3.88zm-10.9-12.92h29.62v29.62h-1.1v-.72a12.11 12.11 0 00-6.53-10.73 8.91 8.91 0 10-14.37 0 12.11 12.11 0 00-6.53 10.73v.72h-1.1z"/></g></g></svg>