<svg height="48" width="48" xmlns="http://www.w3.org/2000/svg"><path d="M45 41.5H3a.5.5 0 01-.5-.5V12.5h43V41a.5.5 0 01-.5.5z" fill="#FFF"/><path d="M9 42H3c-.552 0-1-.449-1-1v-3.5a.5.5 0 011 0V41h6a.5.5 0 010 1z" fill="#0277BD"/><path d="M45 42h-6a.5.5 0 010-1h6V13H3v27a.5.5 0 01-1 0V12h44v29c0 .551-.448 1-1 1z" fill="#0277BD"/><path d="M43.5 40h-39a.5.5 0 01-.5-.5v-25a.5.5 0 01.5-.5h39a.5.5 0 01.5.5v25a.5.5 0 01-.5.5z" fill="#FAFAFA"/><path d="M41.5 38h-35a.5.5 0 01-.5-.5v-9a.5.5 0 01.5-.5h35a.5.5 0 01.5.5v9a.5.5 0 01-.5.5zM41.5 26h-35a.5.5 0 01-.5-.5v-9a.5.5 0 01.5-.5h35a.5.5 0 01.5.5v9a.5.5 0 01-.5.5z" fill="#EEE"/><g><path d="M45.5 12.5h-43v-5a1 1 0 011-1h41a1 1 0 011 1v5z" fill="#8C9EFF"/><path d="M45.5 13h-43a.5.5 0 01-.5-.5v-5C2 6.673 2.673 6 3.5 6h41c.827 0 1.5.673 1.5 1.5v5a.5.5 0 01-.5.5zM3 12h42V7.5a.5.5 0 00-.5-.5h-41a.5.5 0 00-.5.5V12z" fill="#0277BD"/></g><g><circle cx="16.5" cy="9.5" fill="#FFF" r="1"/><path d="M16.5 11c-.827 0-1.5-.673-1.5-1.5S15.673 8 16.5 8s1.5.673 1.5 1.5-.673 1.5-1.5 1.5zm0-2a.5.5 0 10.002 1.002A.5.5 0 0016.5 9z" fill="#0277BD"/><circle cx="11.5" cy="9.5" fill="#FFF" r="1"/><path d="M11.5 11c-.827 0-1.5-.673-1.5-1.5S10.673 8 11.5 8s1.5.673 1.5 1.5-.673 1.5-1.5 1.5zm0-2a.5.5 0 10.002 1.002A.5.5 0 0011.5 9z" fill="#0277BD"/><g><circle cx="6.5" cy="9.5" fill="#FFF" r="1"/><path d="M6.5 11C5.673 11 5 10.327 5 9.5S5.673 8 6.5 8 8 8.673 8 9.5 7.327 11 6.5 11zm0-2a.5.5 0 10.002 1.002A.5.5 0 006.5 9z" fill="#0277BD"/></g></g><g><path d="M36.779 41.713c.541.983.053 1.787-1.083 1.787H12.304c-1.136 0-1.624-.804-1.083-1.787l11.798-21.477c.541-.982 1.422-.982 1.963 0l11.797 21.477z" fill="#FFE57F"/><path d="M35.696 44H12.304c-.728 0-1.313-.284-1.605-.779-.289-.489-.259-1.126.084-1.749L22.58 19.996c.709-1.285 2.132-1.285 2.839 0l11.799 21.477c.343.623.373 1.26.084 1.749-.292.494-.878.778-1.606.778zM24 20c-.176 0-.379.179-.544.478L11.659 41.954c-.168.306-.205.582-.101.758.109.183.38.288.746.288h23.393c.365 0 .637-.105.745-.288.104-.177.067-.453-.101-.758L24.543 20.478C24.379 20.179 24.176 20 24 20z" fill="#0277BD"/><path d="M35.696 43H12.304c-.169 0-.281-.021-.349-.034a.5.5 0 01-.454-.525c.008-.147.062-.312.16-.488l11.795-21.474c.06-.106.113-.183.158-.237.191-.23.58-.23.771 0 .045.055.101.132.157.237L36.34 41.955c.07.128.104.225.125.284a.498.498 0 01-.227.652 1.184 1.184 0 01-.542.109zm-22.921-1h22.449l-11.22-20.427L12.775 42z" fill="#FFF8E1"/><path d="M25.5 28c0 2.188-1.5 7.5-1.5 7.5s-1.5-5.375-1.5-7.5a1.5 1.5 0 113 0z" fill="#FFF"/><path d="M24 36a.499.499 0 01-.481-.366C23.456 35.412 22 30.169 22 28c0-1.103.897-2 2-2s2 .897 2 2c0 2.232-1.457 7.417-1.519 7.636A.5.5 0 0124 36zm0-9c-.552 0-1 .449-1 1 0 1.266.569 3.793 1.002 5.531.433-1.725.998-4.23.998-5.531 0-.551-.448-1-1-1z" fill="#0277BD"/><g><circle cx="24" cy="39" fill="#FFF" r="1.5"/><path d="M24 41c-1.103 0-2-.897-2-2s.897-2 2-2 2 .897 2 2-.897 2-2 2zm0-3a1.001 1.001 0 000 2 1.001 1.001 0 000-2z" fill="#0277BD"/></g></g></svg>